<svg width="132" height="16" viewBox="0 0 132 16" fill="none" xmlns="http://www.w3.org/2000/svg">
<path d="M8.48 10.976V12H0.624V11.184L5.28 6.624C5.86667 6.048 6.26133 5.552 6.464 5.136C6.67733 4.70933 6.784 4.28267 6.784 3.856C6.784 3.19467 6.55467 2.68267 6.096 2.32C5.648 1.94667 5.00267 1.76 4.16 1.76C2.848 1.76 1.82933 2.176 1.104 3.008L0.288 2.304C0.725333 1.792 1.28 1.39733 1.952 1.12C2.63467 0.842666 3.40267 0.704 4.256 0.704C5.39733 0.704 6.29867 0.976 6.96 1.52C7.632 2.05333 7.968 2.78933 7.968 3.728C7.968 4.304 7.84 4.85867 7.584 5.392C7.328 5.92533 6.84267 6.53867 6.128 7.232L2.32 10.976H8.48ZM14.3273 12.096C13.4633 12.096 12.6899 11.8667 12.0073 11.408C11.3353 10.9493 10.8073 10.2933 10.4233 9.44C10.0499 8.576 9.86325 7.56267 9.86325 6.4C9.86325 5.23733 10.0499 4.22933 10.4233 3.376C10.8073 2.512 11.3353 1.85067 12.0073 1.392C12.6899 0.933333 13.4633 0.704 14.3273 0.704C15.1913 0.704 15.9593 0.933333 16.6313 1.392C17.3139 1.85067 17.8473 2.512 18.2313 3.376C18.6153 4.22933 18.8073 5.23733 18.8073 6.4C18.8073 7.56267 18.6153 8.576 18.2313 9.44C17.8473 10.2933 17.3139 10.9493 16.6313 11.408C15.9593 11.8667 15.1913 12.096 14.3273 12.096ZM14.3273 11.04C14.9779 11.04 15.5486 10.8587 16.0393 10.496C16.5406 10.1333 16.9299 9.60533 17.2073 8.912C17.4846 8.21867 17.6233 7.38133 17.6233 6.4C17.6233 5.41867 17.4846 4.58133 17.2073 3.888C16.9299 3.19467 16.5406 2.66667 16.0393 2.304C15.5486 1.94133 14.9779 1.76 14.3273 1.76C13.6766 1.76 13.1006 1.94133 12.5993 2.304C12.1086 2.66667 11.7246 3.19467 11.4473 3.888C11.1699 4.58133 11.0312 5.41867 11.0312 6.4C11.0312 7.38133 11.1699 8.21867 11.4473 8.912C11.7246 9.60533 12.1086 10.1333 12.5993 10.496C13.1006 10.8587 13.6766 11.04 14.3273 11.04ZM21.1491 12.08C20.9145 12.08 20.7118 11.9947 20.5411 11.824C20.3811 11.6533 20.3011 11.4453 20.3011 11.2C20.3011 10.9547 20.3811 10.752 20.5411 10.592C20.7118 10.4213 20.9145 10.336 21.1491 10.336C21.3838 10.336 21.5865 10.4213 21.7571 10.592C21.9278 10.752 22.0131 10.9547 22.0131 11.2C22.0131 11.4453 21.9278 11.6533 21.7571 11.824C21.5865 11.9947 21.3838 12.08 21.1491 12.08ZM27.9679 12.096C27.1039 12.096 26.3305 11.8667 25.6479 11.408C24.9759 10.9493 24.4479 10.2933 24.0639 9.44C23.6905 8.576 23.5039 7.56267 23.5039 6.4C23.5039 5.23733 23.6905 4.22933 24.0639 3.376C24.4479 2.512 24.9759 1.85067 25.6479 1.392C26.3305 0.933333 27.1039 0.704 27.9679 0.704C28.8319 0.704 29.5999 0.933333 30.2719 1.392C30.9545 1.85067 31.4879 2.512 31.8719 3.376C32.2559 4.22933 32.4479 5.23733 32.4479 6.4C32.4479 7.56267 32.2559 8.576 31.8719 9.44C31.4879 10.2933 30.9545 10.9493 30.2719 11.408C29.5999 11.8667 28.8319 12.096 27.9679 12.096ZM27.9679 11.04C28.6185 11.04 29.1892 10.8587 29.6799 10.496C30.1812 10.1333 30.5705 9.60533 30.8479 8.912C31.1252 8.21867 31.2639 7.38133 31.2639 6.4C31.2639 5.41867 31.1252 4.58133 30.8479 3.888C30.5705 3.19467 30.1812 2.66667 29.6799 2.304C29.1892 1.94133 28.6185 1.76 27.9679 1.76C27.3172 1.76 26.7412 1.94133 26.2399 2.304C25.7492 2.66667 25.3652 3.19467 25.0879 3.888C24.8105 4.58133 24.6719 5.41867 24.6719 6.4C24.6719 7.38133 24.8105 8.21867 25.0879 8.912C25.3652 9.60533 25.7492 10.1333 26.2399 10.496C26.7412 10.8587 27.3172 11.04 27.9679 11.04ZM37.0416 5.392C38.663 5.392 39.8416 5.68533 40.5776 6.272C41.3243 6.848 41.6976 7.65867 41.6976 8.704C41.6976 9.35467 41.543 9.936 41.2336 10.448C40.935 10.96 40.4816 11.3653 39.8736 11.664C39.2656 11.952 38.519 12.096 37.6336 12.096C36.8336 12.096 36.071 11.968 35.3456 11.712C34.631 11.4453 34.055 11.0933 33.6176 10.656L34.1776 9.744C34.551 10.128 35.0416 10.4427 35.6496 10.688C36.2576 10.9227 36.9136 11.04 37.6176 11.04C38.5456 11.04 39.2603 10.832 39.7616 10.416C40.2736 10 40.5296 9.44533 40.5296 8.752C40.5296 7.984 40.2416 7.40267 39.6656 7.008C39.1003 6.61333 38.1403 6.416 36.7856 6.416H34.4016L34.9776 0.799999H41.1056V1.824H35.9856L35.6016 5.392H37.0416ZM44.0241 12.08C43.7895 12.08 43.5868 11.9947 43.4161 11.824C43.2561 11.6533 43.1761 11.4453 43.1761 11.2C43.1761 10.9547 43.2561 10.752 43.4161 10.592C43.5868 10.4213 43.7895 10.336 44.0241 10.336C44.2588 10.336 44.4615 10.4213 44.6321 10.592C44.8028 10.752 44.8881 10.9547 44.8881 11.2C44.8881 11.4453 44.8028 11.6533 44.6321 11.824C44.4615 11.9947 44.2588 12.08 44.0241 12.08ZM54.355 10.976V12H46.499V11.184L51.155 6.624C51.7417 6.048 52.1363 5.552 52.339 5.136C52.5523 4.70933 52.659 4.28267 52.659 3.856C52.659 3.19467 52.4297 2.68267 51.971 2.32C51.523 1.94667 50.8777 1.76 50.035 1.76C48.723 1.76 47.7043 2.176 46.979 3.008L46.163 2.304C46.6003 1.792 47.155 1.39733 47.827 1.12C48.5097 0.842666 49.2777 0.704 50.131 0.704C51.2723 0.704 52.1737 0.976 52.835 1.52C53.507 2.05333 53.843 2.78933 53.843 3.728C53.843 4.304 53.715 4.85867 53.459 5.392C53.203 5.92533 52.7177 6.53867 52.003 7.232L48.195 10.976H54.355ZM60.2023 12.096C59.3383 12.096 58.5649 11.8667 57.8823 11.408C57.2103 10.9493 56.6823 10.2933 56.2983 9.44C55.9249 8.576 55.7383 7.56267 55.7383 6.4C55.7383 5.23733 55.9249 4.22933 56.2983 3.376C56.6823 2.512 57.2103 1.85067 57.8823 1.392C58.5649 0.933333 59.3383 0.704 60.2023 0.704C61.0663 0.704 61.8343 0.933333 62.5063 1.392C63.1889 1.85067 63.7223 2.512 64.1063 3.376C64.4903 4.22933 64.6823 5.23733 64.6823 6.4C64.6823 7.56267 64.4903 8.576 64.1063 9.44C63.7223 10.2933 63.1889 10.9493 62.5063 11.408C61.8343 11.8667 61.0663 12.096 60.2023 12.096ZM60.2023 11.04C60.8529 11.04 61.4236 10.8587 61.9143 10.496C62.4156 10.1333 62.8049 9.60533 63.0823 8.912C63.3596 8.21867 63.4983 7.38133 63.4983 6.4C63.4983 5.41867 63.3596 4.58133 63.0823 3.888C62.8049 3.19467 62.4156 2.66667 61.9143 2.304C61.4236 1.94133 60.8529 1.76 60.2023 1.76C59.5516 1.76 58.9756 1.94133 58.4743 2.304C57.9836 2.66667 57.5996 3.19467 57.3223 3.888C57.0449 4.58133 56.9062 5.41867 56.9062 6.4C56.9062 7.38133 57.0449 8.21867 57.3223 8.912C57.5996 9.60533 57.9836 10.1333 58.4743 10.496C58.9756 10.8587 59.5516 11.04 60.2023 11.04ZM73.9488 10.976V12H66.0928V11.184L70.7488 6.624C71.3354 6.048 71.7301 5.552 71.9328 5.136C72.1461 4.70933 72.2528 4.28267 72.2528 3.856C72.2528 3.19467 72.0234 2.68267 71.5648 2.32C71.1168 1.94667 70.4714 1.76 69.6288 1.76C68.3168 1.76 67.2981 2.176 66.5728 3.008L65.7568 2.304C66.1941 1.792 66.7488 1.39733 67.4208 1.12C68.1034 0.842666 68.8714 0.704 69.7248 0.704C70.8661 0.704 71.7674 0.976 72.4288 1.52C73.1008 2.05333 73.4368 2.78933 73.4368 3.728C73.4368 4.304 73.3088 4.85867 73.0528 5.392C72.7968 5.92533 72.3114 6.53867 71.5968 7.232L67.7888 10.976H73.9488ZM78.4985 0.799999V12H77.3465V1.824H74.7065V0.799999H78.4985ZM86.3553 0.127999H87.4113V15.104H86.3553V0.127999ZM97.3735 0.799999V12H96.2215V1.824H93.5815V0.799999H97.3735ZM106.467 6.128C107.171 6.36267 107.709 6.71467 108.083 7.184C108.467 7.65333 108.659 8.21867 108.659 8.88C108.659 9.53067 108.483 10.1013 108.131 10.592C107.779 11.072 107.272 11.4453 106.611 11.712C105.96 11.968 105.192 12.096 104.307 12.096C102.963 12.096 101.907 11.808 101.139 11.232C100.371 10.656 99.9868 9.872 99.9868 8.88C99.9868 8.208 100.168 7.64267 100.531 7.184C100.904 6.71467 101.443 6.36267 102.147 6.128C101.571 5.904 101.133 5.584 100.835 5.168C100.536 4.74133 100.387 4.24 100.387 3.664C100.387 2.75733 100.739 2.03733 101.443 1.504C102.157 0.970666 103.112 0.704 104.307 0.704C105.096 0.704 105.784 0.826666 106.371 1.072C106.968 1.30667 107.432 1.648 107.763 2.096C108.093 2.544 108.259 3.06667 108.259 3.664C108.259 4.24 108.104 4.74133 107.795 5.168C107.485 5.584 107.043 5.904 106.467 6.128ZM101.539 3.696C101.539 4.31467 101.784 4.80533 102.275 5.168C102.765 5.53067 103.443 5.712 104.307 5.712C105.171 5.712 105.848 5.53067 106.339 5.168C106.84 4.80533 107.091 4.32 107.091 3.712C107.091 3.08267 106.835 2.58667 106.323 2.224C105.821 1.86133 105.149 1.68 104.307 1.68C103.453 1.68 102.776 1.86133 102.275 2.224C101.784 2.58667 101.539 3.07733 101.539 3.696ZM104.307 11.12C105.299 11.12 106.072 10.9173 106.627 10.512C107.192 10.1067 107.475 9.55733 107.475 8.864C107.475 8.17067 107.192 7.62667 106.627 7.232C106.072 6.82667 105.299 6.624 104.307 6.624C103.325 6.624 102.552 6.82667 101.987 7.232C101.432 7.62667 101.155 8.17067 101.155 8.864C101.155 9.568 101.432 10.1227 101.987 10.528C102.541 10.9227 103.315 11.12 104.307 11.12ZM111.118 5.264C110.883 5.264 110.681 5.17867 110.51 5.008C110.35 4.83733 110.27 4.62933 110.27 4.384C110.27 4.13867 110.35 3.936 110.51 3.776C110.681 3.60533 110.883 3.52 111.118 3.52C111.353 3.52 111.555 3.60533 111.726 3.776C111.897 3.936 111.982 4.13867 111.982 4.384C111.982 4.62933 111.897 4.83733 111.726 5.008C111.555 5.17867 111.353 5.264 111.118 5.264ZM111.118 12.08C110.883 12.08 110.681 11.9947 110.51 11.824C110.35 11.6533 110.27 11.4453 110.27 11.2C110.27 10.9547 110.35 10.752 110.51 10.592C110.681 10.4213 110.883 10.336 111.118 10.336C111.353 10.336 111.555 10.4213 111.726 10.592C111.897 10.752 111.982 10.9547 111.982 11.2C111.982 11.4453 111.897 11.6533 111.726 11.824C111.555 11.9947 111.353 12.08 111.118 12.08ZM117.453 5.6C118.626 5.664 119.517 5.984 120.125 6.56C120.743 7.12533 121.053 7.86667 121.053 8.784C121.053 9.424 120.898 9.99467 120.589 10.496C120.279 10.9867 119.821 11.376 119.213 11.664C118.605 11.952 117.863 12.096 116.989 12.096C116.178 12.096 115.41 11.968 114.685 11.712C113.97 11.4453 113.394 11.0933 112.957 10.656L113.517 9.744C113.89 10.128 114.386 10.4427 115.005 10.688C115.623 10.9227 116.285 11.04 116.989 11.04C117.906 11.04 118.615 10.8427 119.117 10.448C119.618 10.0427 119.869 9.488 119.869 8.784C119.869 8.09067 119.618 7.54667 119.117 7.152C118.615 6.75733 117.858 6.56 116.845 6.56H116.045V5.712L119.149 1.824H113.421V0.799999H120.621V1.616L117.453 5.6ZM127.14 12.096C126.276 12.096 125.502 11.8667 124.82 11.408C124.148 10.9493 123.62 10.2933 123.236 9.44C122.862 8.576 122.676 7.56267 122.676 6.4C122.676 5.23733 122.862 4.22933 123.236 3.376C123.62 2.512 124.148 1.85067 124.82 1.392C125.502 0.933333 126.276 0.704 127.14 0.704C128.004 0.704 128.772 0.933333 129.444 1.392C130.126 1.85067 130.66 2.512 131.044 3.376C131.428 4.22933 131.62 5.23733 131.62 6.4C131.62 7.56267 131.428 8.576 131.044 9.44C130.66 10.2933 130.126 10.9493 129.444 11.408C128.772 11.8667 128.004 12.096 127.14 12.096ZM127.14 11.04C127.79 11.04 128.361 10.8587 128.852 10.496C129.353 10.1333 129.742 9.60533 130.02 8.912C130.297 8.21867 130.436 7.38133 130.436 6.4C130.436 5.41867 130.297 4.58133 130.02 3.888C129.742 3.19467 129.353 2.66667 128.852 2.304C128.361 1.94133 127.79 1.76 127.14 1.76C126.489 1.76 125.913 1.94133 125.412 2.304C124.921 2.66667 124.537 3.19467 124.26 3.888C123.982 4.58133 123.844 5.41867 123.844 6.4C123.844 7.38133 123.982 8.21867 124.26 8.912C124.537 9.60533 124.921 10.1333 125.412 10.496C125.913 10.8587 126.489 11.04 127.14 11.04Z" fill="white"/>
</svg>
