<svg width="129" height="16" viewBox="0 0 129 16" fill="none" xmlns="http://www.w3.org/2000/svg">
<path d="M4.1235 0.799999V12H2.9715V1.824H0.3315V0.799999H4.1235ZM10.2888 0.704C11.7714 0.704 12.9074 1.19467 13.6968 2.176C14.4861 3.14667 14.8808 4.52267 14.8808 6.304C14.8808 7.552 14.6674 8.608 14.2408 9.472C13.8141 10.336 13.2168 10.992 12.4488 11.44C11.6808 11.8773 10.7848 12.096 9.76075 12.096C8.65142 12.096 7.76608 11.8933 7.10475 11.488L7.56875 10.56C8.10208 10.912 8.82742 11.088 9.74475 11.088C10.9821 11.088 11.9528 10.6987 12.6568 9.92C13.3608 9.13067 13.7128 7.98933 13.7128 6.496C13.7128 6.21867 13.6968 5.91467 13.6648 5.584C13.3874 6.192 12.9448 6.66667 12.3368 7.008C11.7288 7.33867 11.0301 7.504 10.2408 7.504C9.50475 7.504 8.84875 7.36533 8.27275 7.088C7.70742 6.81067 7.26475 6.42133 6.94475 5.92C6.62475 5.408 6.46475 4.816 6.46475 4.144C6.46475 3.46133 6.63008 2.85867 6.96075 2.336C7.29142 1.81333 7.74475 1.41333 8.32075 1.136C8.90742 0.848 9.56342 0.704 10.2888 0.704ZM10.4168 6.528C10.9821 6.528 11.4781 6.42133 11.9048 6.208C12.3421 5.99467 12.6834 5.70133 12.9288 5.328C13.1741 4.95467 13.2968 4.53867 13.2968 4.08C13.2968 3.65333 13.1794 3.25867 12.9448 2.896C12.7208 2.53333 12.3848 2.24 11.9368 2.016C11.4888 1.792 10.9554 1.68 10.3368 1.68C9.52608 1.68 8.86475 1.904 8.35275 2.352C7.85142 2.78933 7.60075 3.376 7.60075 4.112C7.60075 4.848 7.85142 5.43467 8.35275 5.872C8.86475 6.30933 9.55275 6.528 10.4168 6.528ZM17.2429 12.08C17.0082 12.08 16.8055 11.9947 16.6349 11.824C16.4749 11.6533 16.3949 11.4453 16.3949 11.2C16.3949 10.9547 16.4749 10.752 16.6349 10.592C16.8055 10.4213 17.0082 10.336 17.2429 10.336C17.4775 10.336 17.6802 10.4213 17.8509 10.592C18.0215 10.752 18.1069 10.9547 18.1069 11.2C18.1069 11.4453 18.0215 11.6533 17.8509 11.824C17.6802 11.9947 17.4775 12.08 17.2429 12.08ZM24.0616 12.096C23.1976 12.096 22.4243 11.8667 21.7416 11.408C21.0696 10.9493 20.5416 10.2933 20.1576 9.44C19.7843 8.576 19.5976 7.56267 19.5976 6.4C19.5976 5.23733 19.7843 4.22933 20.1576 3.376C20.5416 2.512 21.0696 1.85067 21.7416 1.392C22.4243 0.933333 23.1976 0.704 24.0616 0.704C24.9256 0.704 25.6936 0.933333 26.3656 1.392C27.0483 1.85067 27.5816 2.512 27.9656 3.376C28.3496 4.22933 28.5416 5.23733 28.5416 6.4C28.5416 7.56267 28.3496 8.576 27.9656 9.44C27.5816 10.2933 27.0483 10.9493 26.3656 11.408C25.6936 11.8667 24.9256 12.096 24.0616 12.096ZM24.0616 11.04C24.7123 11.04 25.283 10.8587 25.7736 10.496C26.275 10.1333 26.6643 9.60533 26.9416 8.912C27.219 8.21867 27.3576 7.38133 27.3576 6.4C27.3576 5.41867 27.219 4.58133 26.9416 3.888C26.6643 3.19467 26.275 2.66667 25.7736 2.304C25.283 1.94133 24.7123 1.76 24.0616 1.76C23.411 1.76 22.835 1.94133 22.3336 2.304C21.843 2.66667 21.459 3.19467 21.1816 3.888C20.9043 4.58133 20.7656 5.41867 20.7656 6.4C20.7656 7.38133 20.9043 8.21867 21.1816 8.912C21.459 9.60533 21.843 10.1333 22.3336 10.496C22.835 10.8587 23.411 11.04 24.0616 11.04ZM39.7114 9.056H37.4714V12H36.3194V9.056H29.9994V8.224L35.9354 0.799999H37.2154L31.4874 8.032H36.3514V5.44H37.4714V8.032H39.7114V9.056ZM41.946 12.08C41.7113 12.08 41.5087 11.9947 41.338 11.824C41.178 11.6533 41.098 11.4453 41.098 11.2C41.098 10.9547 41.178 10.752 41.338 10.592C41.5087 10.4213 41.7113 10.336 41.946 10.336C42.1807 10.336 42.3833 10.4213 42.554 10.592C42.7247 10.752 42.81 10.9547 42.81 11.2C42.81 11.4453 42.7247 11.6533 42.554 11.824C42.3833 11.9947 42.1807 12.08 41.946 12.08ZM52.2769 10.976V12H44.4209V11.184L49.0769 6.624C49.6635 6.048 50.0582 5.552 50.2609 5.136C50.4742 4.70933 50.5809 4.28267 50.5809 3.856C50.5809 3.19467 50.3515 2.68267 49.8929 2.32C49.4449 1.94667 48.7995 1.76 47.9569 1.76C46.6449 1.76 45.6262 2.176 44.9009 3.008L44.0849 2.304C44.5222 1.792 45.0769 1.39733 45.7489 1.12C46.4315 0.842666 47.1995 0.704 48.0529 0.704C49.1942 0.704 50.0955 0.976 50.7569 1.52C51.4289 2.05333 51.7649 2.78933 51.7649 3.728C51.7649 4.304 51.6369 4.85867 51.3809 5.392C51.1249 5.92533 50.6395 6.53867 49.9249 7.232L46.1169 10.976H52.2769ZM58.1241 12.096C57.2601 12.096 56.4868 11.8667 55.8041 11.408C55.1321 10.9493 54.6041 10.2933 54.2201 9.44C53.8468 8.576 53.6601 7.56267 53.6601 6.4C53.6601 5.23733 53.8468 4.22933 54.2201 3.376C54.6041 2.512 55.1321 1.85067 55.8041 1.392C56.4868 0.933333 57.2601 0.704 58.1241 0.704C58.9881 0.704 59.7561 0.933333 60.4281 1.392C61.1108 1.85067 61.6441 2.512 62.0281 3.376C62.4121 4.22933 62.6041 5.23733 62.6041 6.4C62.6041 7.56267 62.4121 8.576 62.0281 9.44C61.6441 10.2933 61.1108 10.9493 60.4281 11.408C59.7561 11.8667 58.9881 12.096 58.1241 12.096ZM58.1241 11.04C58.7748 11.04 59.3455 10.8587 59.8361 10.496C60.3375 10.1333 60.7268 9.60533 61.0041 8.912C61.2815 8.21867 61.4201 7.38133 61.4201 6.4C61.4201 5.41867 61.2815 4.58133 61.0041 3.888C60.7268 3.19467 60.3375 2.66667 59.8361 2.304C59.3455 1.94133 58.7748 1.76 58.1241 1.76C57.4735 1.76 56.8975 1.94133 56.3961 2.304C55.9055 2.66667 55.5215 3.19467 55.2441 3.888C54.9668 4.58133 54.8281 5.41867 54.8281 6.4C54.8281 7.38133 54.9668 8.21867 55.2441 8.912C55.5215 9.60533 55.9055 10.1333 56.3961 10.496C56.8975 10.8587 57.4735 11.04 58.1241 11.04ZM71.8706 10.976V12H64.0146V11.184L68.6706 6.624C69.2573 6.048 69.652 5.552 69.8546 5.136C70.068 4.70933 70.1746 4.28267 70.1746 3.856C70.1746 3.19467 69.9453 2.68267 69.4866 2.32C69.0386 1.94667 68.3933 1.76 67.5506 1.76C66.2386 1.76 65.22 2.176 64.4946 3.008L63.6786 2.304C64.116 1.792 64.6706 1.39733 65.3426 1.12C66.0253 0.842666 66.7933 0.704 67.6466 0.704C68.788 0.704 69.6893 0.976 70.3506 1.52C71.0226 2.05333 71.3586 2.78933 71.3586 3.728C71.3586 4.304 71.2306 4.85867 70.9746 5.392C70.7186 5.92533 70.2333 6.53867 69.5186 7.232L65.7106 10.976H71.8706ZM76.4204 0.799999V12H75.2684V1.824H72.6284V0.799999H76.4204ZM84.2771 0.127999H85.3331V15.104H84.2771V0.127999ZM95.2954 0.799999V12H94.1434V1.824H91.5034V0.799999H95.2954ZM105.877 0.799999V1.616L101.189 12H99.9406L104.549 1.824H98.7886V3.92H97.6526V0.799999H105.877ZM107.946 5.264C107.711 5.264 107.509 5.17867 107.338 5.008C107.178 4.83733 107.098 4.62933 107.098 4.384C107.098 4.13867 107.178 3.936 107.338 3.776C107.509 3.60533 107.711 3.52 107.946 3.52C108.181 3.52 108.383 3.60533 108.554 3.776C108.725 3.936 108.81 4.13867 108.81 4.384C108.81 4.62933 108.725 4.83733 108.554 5.008C108.383 5.17867 108.181 5.264 107.946 5.264ZM107.946 12.08C107.711 12.08 107.509 11.9947 107.338 11.824C107.178 11.6533 107.098 11.4453 107.098 11.2C107.098 10.9547 107.178 10.752 107.338 10.592C107.509 10.4213 107.711 10.336 107.946 10.336C108.181 10.336 108.383 10.4213 108.554 10.592C108.725 10.752 108.81 10.9547 108.81 11.2C108.81 11.4453 108.725 11.6533 108.554 11.824C108.383 11.9947 108.181 12.08 107.946 12.08ZM114.281 5.6C115.454 5.664 116.345 5.984 116.953 6.56C117.571 7.12533 117.881 7.86667 117.881 8.784C117.881 9.424 117.726 9.99467 117.417 10.496C117.107 10.9867 116.649 11.376 116.041 11.664C115.433 11.952 114.691 12.096 113.817 12.096C113.006 12.096 112.238 11.968 111.513 11.712C110.798 11.4453 110.222 11.0933 109.785 10.656L110.345 9.744C110.718 10.128 111.214 10.4427 111.833 10.688C112.451 10.9227 113.113 11.04 113.817 11.04C114.734 11.04 115.443 10.8427 115.945 10.448C116.446 10.0427 116.697 9.488 116.697 8.784C116.697 8.09067 116.446 7.54667 115.945 7.152C115.443 6.75733 114.686 6.56 113.673 6.56H112.873V5.712L115.977 1.824H110.249V0.799999H117.449V1.616L114.281 5.6ZM123.968 12.096C123.104 12.096 122.331 11.8667 121.648 11.408C120.976 10.9493 120.448 10.2933 120.064 9.44C119.691 8.576 119.504 7.56267 119.504 6.4C119.504 5.23733 119.691 4.22933 120.064 3.376C120.448 2.512 120.976 1.85067 121.648 1.392C122.331 0.933333 123.104 0.704 123.968 0.704C124.832 0.704 125.6 0.933333 126.272 1.392C126.955 1.85067 127.488 2.512 127.872 3.376C128.256 4.22933 128.448 5.23733 128.448 6.4C128.448 7.56267 128.256 8.576 127.872 9.44C127.488 10.2933 126.955 10.9493 126.272 11.408C125.6 11.8667 124.832 12.096 123.968 12.096ZM123.968 11.04C124.619 11.04 125.189 10.8587 125.68 10.496C126.181 10.1333 126.571 9.60533 126.848 8.912C127.125 8.21867 127.264 7.38133 127.264 6.4C127.264 5.41867 127.125 4.58133 126.848 3.888C126.571 3.19467 126.181 2.66667 125.68 2.304C125.189 1.94133 124.619 1.76 123.968 1.76C123.317 1.76 122.741 1.94133 122.24 2.304C121.749 2.66667 121.365 3.19467 121.088 3.888C120.811 4.58133 120.672 5.41867 120.672 6.4C120.672 7.38133 120.811 8.21867 121.088 8.912C121.365 9.60533 121.749 10.1333 122.24 10.496C122.741 10.8587 123.317 11.04 123.968 11.04Z" fill="white"/>
</svg>
