<svg width="123" height="49" viewBox="0 0 123 49" fill="none" xmlns="http://www.w3.org/2000/svg">
<rect width="123" height="49" rx="10" fill="#323232"/>
<path d="M50.66 30.592V32H39.858V30.878L46.26 24.608C47.0667 23.816 47.6093 23.134 47.888 22.562C48.1813 21.9753 48.328 21.3887 48.328 20.802C48.328 19.8927 48.0127 19.1887 47.382 18.69C46.766 18.1767 45.8787 17.92 44.72 17.92C42.916 17.92 41.5153 18.492 40.518 19.636L39.396 18.668C39.9973 17.964 40.76 17.4213 41.684 17.04C42.6227 16.6587 43.6787 16.468 44.852 16.468C46.4213 16.468 47.6607 16.842 48.57 17.59C49.494 18.3233 49.956 19.3353 49.956 20.626C49.956 21.418 49.78 22.1807 49.428 22.914C49.076 23.6473 48.4087 24.4907 47.426 25.444L42.19 30.592H50.66ZM58.7 32.132C57.512 32.132 56.4486 31.8167 55.51 31.186C54.586 30.5553 53.86 29.6533 53.332 28.48C52.8186 27.292 52.562 25.8987 52.562 24.3C52.562 22.7013 52.8186 21.3153 53.332 20.142C53.86 18.954 54.586 18.0447 55.51 17.414C56.4486 16.7833 57.512 16.468 58.7 16.468C59.888 16.468 60.944 16.7833 61.868 17.414C62.8066 18.0447 63.54 18.954 64.068 20.142C64.596 21.3153 64.86 22.7013 64.86 24.3C64.86 25.8987 64.596 27.292 64.068 28.48C63.54 29.6533 62.8066 30.5553 61.868 31.186C60.944 31.8167 59.888 32.132 58.7 32.132ZM58.7 30.68C59.5946 30.68 60.3793 30.4307 61.054 29.932C61.7433 29.4333 62.2786 28.7073 62.66 27.754C63.0413 26.8007 63.232 25.6493 63.232 24.3C63.232 22.9507 63.0413 21.7993 62.66 20.846C62.2786 19.8927 61.7433 19.1667 61.054 18.668C60.3793 18.1693 59.5946 17.92 58.7 17.92C57.8053 17.92 57.0133 18.1693 56.324 18.668C55.6493 19.1667 55.1213 19.8927 54.74 20.846C54.3586 21.7993 54.168 22.9507 54.168 24.3C54.168 25.6493 54.3586 26.8007 54.74 27.754C55.1213 28.7073 55.6493 29.4333 56.324 29.932C57.0133 30.4307 57.8053 30.68 58.7 30.68ZM70.3844 24.85C69.343 24.85 68.4997 24.4687 67.8544 23.706C67.2237 22.9287 66.9084 21.9167 66.9084 20.67C66.9084 19.4233 67.2237 18.4187 67.8544 17.656C68.4997 16.8787 69.343 16.49 70.3844 16.49C71.411 16.49 72.247 16.8713 72.8924 17.634C73.5377 18.3967 73.8604 19.4087 73.8604 20.67C73.8604 21.9313 73.5377 22.9433 72.8924 23.706C72.247 24.4687 71.411 24.85 70.3844 24.85ZM79.7124 16.6H81.0104L70.4944 32H69.1964L79.7124 16.6ZM70.3844 23.86C71.103 23.86 71.675 23.5813 72.1004 23.024C72.5404 22.452 72.7604 21.6673 72.7604 20.67C72.7604 19.6727 72.5404 18.8953 72.1004 18.338C71.675 17.766 71.103 17.48 70.3844 17.48C69.651 17.48 69.0717 17.766 68.6464 18.338C68.221 18.91 68.0084 19.6873 68.0084 20.67C68.0084 21.6527 68.221 22.43 68.6464 23.002C69.0717 23.574 69.651 23.86 70.3844 23.86ZM79.8224 32.11C78.7957 32.11 77.9597 31.7287 77.3144 30.966C76.669 30.1887 76.3464 29.1767 76.3464 27.93C76.3464 26.6833 76.669 25.6787 77.3144 24.916C77.9597 24.1387 78.7957 23.75 79.8224 23.75C80.8637 23.75 81.6997 24.1387 82.3304 24.916C82.9757 25.6787 83.2984 26.6833 83.2984 27.93C83.2984 29.1767 82.9757 30.1887 82.3304 30.966C81.6997 31.7287 80.8637 32.11 79.8224 32.11ZM79.8224 31.12C80.5557 31.12 81.135 30.834 81.5604 30.262C81.9857 29.69 82.1984 28.9127 82.1984 27.93C82.1984 26.9473 81.9857 26.17 81.5604 25.598C81.135 25.026 80.5557 24.74 79.8224 24.74C79.1037 24.74 78.5244 25.026 78.0844 25.598C77.659 26.1553 77.4464 26.9327 77.4464 27.93C77.4464 28.9273 77.659 29.712 78.0844 30.284C78.5244 30.8413 79.1037 31.12 79.8224 31.12Z" fill="white"/>
</svg>
