<svg width="123" height="49" viewBox="0 0 123 49" fill="none" xmlns="http://www.w3.org/2000/svg">
<rect width="123" height="49" rx="10" fill="#323232"/>
<path d="M44.192 22.914C46.4213 22.914 48.042 23.3173 49.054 24.124C50.0807 24.916 50.594 26.0307 50.594 27.468C50.594 28.3627 50.3813 29.162 49.956 29.866C49.5453 30.57 48.922 31.1273 48.086 31.538C47.25 31.934 46.2233 32.132 45.006 32.132C43.906 32.132 42.8573 31.956 41.86 31.604C40.8773 31.2373 40.0853 30.7533 39.484 30.152L40.254 28.898C40.7673 29.426 41.442 29.8587 42.278 30.196C43.114 30.5187 44.016 30.68 44.984 30.68C46.26 30.68 47.2427 30.394 47.932 29.822C48.636 29.25 48.988 28.4873 48.988 27.534C48.988 26.478 48.592 25.6787 47.8 25.136C47.0227 24.5933 45.7027 24.322 43.84 24.322H40.562L41.354 16.6H49.78V18.008H42.74L42.212 22.914H44.192ZM58.7429 32.132C57.5549 32.132 56.4916 31.8167 55.5529 31.186C54.6289 30.5553 53.9029 29.6533 53.3749 28.48C52.8616 27.292 52.6049 25.8987 52.6049 24.3C52.6049 22.7013 52.8616 21.3153 53.3749 20.142C53.9029 18.954 54.6289 18.0447 55.5529 17.414C56.4916 16.7833 57.5549 16.468 58.7429 16.468C59.9309 16.468 60.9869 16.7833 61.9109 17.414C62.8496 18.0447 63.5829 18.954 64.1109 20.142C64.6389 21.3153 64.9029 22.7013 64.9029 24.3C64.9029 25.8987 64.6389 27.292 64.1109 28.48C63.5829 29.6533 62.8496 30.5553 61.9109 31.186C60.9869 31.8167 59.9309 32.132 58.7429 32.132ZM58.7429 30.68C59.6376 30.68 60.4223 30.4307 61.0969 29.932C61.7863 29.4333 62.3216 28.7073 62.7029 27.754C63.0843 26.8007 63.2749 25.6493 63.2749 24.3C63.2749 22.9507 63.0843 21.7993 62.7029 20.846C62.3216 19.8927 61.7863 19.1667 61.0969 18.668C60.4223 18.1693 59.6376 17.92 58.7429 17.92C57.8483 17.92 57.0563 18.1693 56.3669 18.668C55.6923 19.1667 55.1643 19.8927 54.7829 20.846C54.4016 21.7993 54.2109 22.9507 54.2109 24.3C54.2109 25.6493 54.4016 26.8007 54.7829 27.754C55.1643 28.7073 55.6923 29.4333 56.3669 29.932C57.0563 30.4307 57.8483 30.68 58.7429 30.68ZM70.4273 24.85C69.386 24.85 68.5427 24.4687 67.8973 23.706C67.2667 22.9287 66.9513 21.9167 66.9513 20.67C66.9513 19.4233 67.2667 18.4187 67.8973 17.656C68.5427 16.8787 69.386 16.49 70.4273 16.49C71.454 16.49 72.29 16.8713 72.9353 17.634C73.5807 18.3967 73.9033 19.4087 73.9033 20.67C73.9033 21.9313 73.5807 22.9433 72.9353 23.706C72.29 24.4687 71.454 24.85 70.4273 24.85ZM79.7553 16.6H81.0533L70.5373 32H69.2393L79.7553 16.6ZM70.4273 23.86C71.146 23.86 71.718 23.5813 72.1433 23.024C72.5833 22.452 72.8033 21.6673 72.8033 20.67C72.8033 19.6727 72.5833 18.8953 72.1433 18.338C71.718 17.766 71.146 17.48 70.4273 17.48C69.694 17.48 69.1147 17.766 68.6893 18.338C68.264 18.91 68.0513 19.6873 68.0513 20.67C68.0513 21.6527 68.264 22.43 68.6893 23.002C69.1147 23.574 69.694 23.86 70.4273 23.86ZM79.8653 32.11C78.8387 32.11 78.0027 31.7287 77.3573 30.966C76.712 30.1887 76.3893 29.1767 76.3893 27.93C76.3893 26.6833 76.712 25.6787 77.3573 24.916C78.0027 24.1387 78.8387 23.75 79.8653 23.75C80.9067 23.75 81.7427 24.1387 82.3733 24.916C83.0187 25.6787 83.3413 26.6833 83.3413 27.93C83.3413 29.1767 83.0187 30.1887 82.3733 30.966C81.7427 31.7287 80.9067 32.11 79.8653 32.11ZM79.8653 31.12C80.5987 31.12 81.178 30.834 81.6033 30.262C82.0287 29.69 82.2413 28.9127 82.2413 27.93C82.2413 26.9473 82.0287 26.17 81.6033 25.598C81.178 25.026 80.5987 24.74 79.8653 24.74C79.1467 24.74 78.5673 25.026 78.1273 25.598C77.702 26.1553 77.4893 26.9327 77.4893 27.93C77.4893 28.9273 77.702 29.712 78.1273 30.284C78.5673 30.8413 79.1467 31.12 79.8653 31.12Z" fill="white"/>
</svg>
