<svg width="120" height="50" viewBox="0 0 120 50" fill="none" xmlns="http://www.w3.org/2000/svg">
<rect width="120" height="50" rx="10" fill="#323232"/>
<path d="M45.92 18V32H44.48V19.28H41.18V18H45.92ZM54.8466 32.12C53.7666 32.12 52.7999 31.8333 51.9466 31.26C51.1066 30.6867 50.4466 29.8667 49.9666 28.8C49.4999 27.72 49.2666 26.4533 49.2666 25C49.2666 23.5467 49.4999 22.2867 49.9666 21.22C50.4466 20.14 51.1066 19.3133 51.9466 18.74C52.7999 18.1667 53.7666 17.88 54.8466 17.88C55.9266 17.88 56.8866 18.1667 57.7266 18.74C58.5799 19.3133 59.2466 20.14 59.7266 21.22C60.2066 22.2867 60.4466 23.5467 60.4466 25C60.4466 26.4533 60.2066 27.72 59.7266 28.8C59.2466 29.8667 58.5799 30.6867 57.7266 31.26C56.8866 31.8333 55.9266 32.12 54.8466 32.12ZM54.8466 30.8C55.6599 30.8 56.3733 30.5733 56.9866 30.12C57.6133 29.6667 58.0999 29.0067 58.4466 28.14C58.7933 27.2733 58.9666 26.2267 58.9666 25C58.9666 23.7733 58.7933 22.7267 58.4466 21.86C58.0999 20.9933 57.6133 20.3333 56.9866 19.88C56.3733 19.4267 55.6599 19.2 54.8466 19.2C54.0333 19.2 53.3133 19.4267 52.6866 19.88C52.0733 20.3333 51.5933 20.9933 51.2466 21.86C50.8999 22.7267 50.7266 23.7733 50.7266 25C50.7266 26.2267 50.8999 27.2733 51.2466 28.14C51.5933 29.0067 52.0733 29.6667 52.6866 30.12C53.3133 30.5733 54.0333 30.8 54.8466 30.8ZM65.4688 25.5C64.5221 25.5 63.7554 25.1533 63.1688 24.46C62.5954 23.7533 62.3088 22.8333 62.3088 21.7C62.3088 20.5667 62.5954 19.6533 63.1688 18.96C63.7554 18.2533 64.5221 17.9 65.4688 17.9C66.4021 17.9 67.1621 18.2467 67.7488 18.94C68.3354 19.6333 68.6288 20.5533 68.6288 21.7C68.6288 22.8467 68.3354 23.7667 67.7488 24.46C67.1621 25.1533 66.4021 25.5 65.4688 25.5ZM73.9488 18H75.1288L65.5688 32H64.3888L73.9488 18ZM65.4688 24.6C66.1221 24.6 66.6421 24.3467 67.0288 23.84C67.4288 23.32 67.6288 22.6067 67.6288 21.7C67.6288 20.7933 67.4288 20.0867 67.0288 19.58C66.6421 19.06 66.1221 18.8 65.4688 18.8C64.8021 18.8 64.2754 19.06 63.8888 19.58C63.5021 20.1 63.3088 20.8067 63.3088 21.7C63.3088 22.5933 63.5021 23.3 63.8888 23.82C64.2754 24.34 64.8021 24.6 65.4688 24.6ZM74.0488 32.1C73.1154 32.1 72.3554 31.7533 71.7688 31.06C71.1821 30.3533 70.8888 29.4333 70.8888 28.3C70.8888 27.1667 71.1821 26.2533 71.7688 25.56C72.3554 24.8533 73.1154 24.5 74.0488 24.5C74.9954 24.5 75.7554 24.8533 76.3288 25.56C76.9154 26.2533 77.2088 27.1667 77.2088 28.3C77.2088 29.4333 76.9154 30.3533 76.3288 31.06C75.7554 31.7533 74.9954 32.1 74.0488 32.1ZM74.0488 31.2C74.7154 31.2 75.2421 30.94 75.6288 30.42C76.0154 29.9 76.2088 29.1933 76.2088 28.3C76.2088 27.4067 76.0154 26.7 75.6288 26.18C75.2421 25.66 74.7154 25.4 74.0488 25.4C73.3954 25.4 72.8688 25.66 72.4688 26.18C72.0821 26.6867 71.8888 27.3933 71.8888 28.3C71.8888 29.2067 72.0821 29.92 72.4688 30.44C72.8688 30.9467 73.3954 31.2 74.0488 31.2Z" fill="white"/>
</svg>
