<svg width="120" height="50" viewBox="0 0 120 50" fill="none" xmlns="http://www.w3.org/2000/svg">
<rect width="120" height="50" rx="10" fill="#323232"/>
<path d="M46.92 18V32H45.48V19.28H42.18V18H46.92ZM53.9466 23.74C55.9732 23.74 57.4466 24.1067 58.3666 24.84C59.2999 25.56 59.7666 26.5733 59.7666 27.88C59.7666 28.6933 59.5732 29.42 59.1866 30.06C58.8132 30.7 58.2466 31.2067 57.4866 31.58C56.7266 31.94 55.7932 32.12 54.6866 32.12C53.6866 32.12 52.7332 31.96 51.8266 31.64C50.9332 31.3067 50.2132 30.8667 49.6666 30.32L50.3666 29.18C50.8332 29.66 51.4466 30.0533 52.2066 30.36C52.9666 30.6533 53.7866 30.8 54.6666 30.8C55.8266 30.8 56.7199 30.54 57.3466 30.02C57.9866 29.5 58.3066 28.8067 58.3066 27.94C58.3066 26.98 57.9466 26.2533 57.2266 25.76C56.5199 25.2667 55.3199 25.02 53.6266 25.02H50.6466L51.3666 18H59.0266V19.28H52.6266L52.1466 23.74H53.9466ZM64.3594 25.5C63.4127 25.5 62.646 25.1533 62.0594 24.46C61.486 23.7533 61.1994 22.8333 61.1994 21.7C61.1994 20.5667 61.486 19.6533 62.0594 18.96C62.646 18.2533 63.4127 17.9 64.3594 17.9C65.2927 17.9 66.0527 18.2467 66.6394 18.94C67.226 19.6333 67.5194 20.5533 67.5194 21.7C67.5194 22.8467 67.226 23.7667 66.6394 24.46C66.0527 25.1533 65.2927 25.5 64.3594 25.5ZM72.8394 18H74.0194L64.4594 32H63.2794L72.8394 18ZM64.3594 24.6C65.0127 24.6 65.5327 24.3467 65.9194 23.84C66.3194 23.32 66.5194 22.6067 66.5194 21.7C66.5194 20.7933 66.3194 20.0867 65.9194 19.58C65.5327 19.06 65.0127 18.8 64.3594 18.8C63.6927 18.8 63.166 19.06 62.7794 19.58C62.3927 20.1 62.1994 20.8067 62.1994 21.7C62.1994 22.5933 62.3927 23.3 62.7794 23.82C63.166 24.34 63.6927 24.6 64.3594 24.6ZM72.9394 32.1C72.006 32.1 71.246 31.7533 70.6594 31.06C70.0727 30.3533 69.7794 29.4333 69.7794 28.3C69.7794 27.1667 70.0727 26.2533 70.6594 25.56C71.246 24.8533 72.006 24.5 72.9394 24.5C73.886 24.5 74.646 24.8533 75.2194 25.56C75.806 26.2533 76.0994 27.1667 76.0994 28.3C76.0994 29.4333 75.806 30.3533 75.2194 31.06C74.646 31.7533 73.886 32.1 72.9394 32.1ZM72.9394 31.2C73.606 31.2 74.1327 30.94 74.5194 30.42C74.906 29.9 75.0994 29.1933 75.0994 28.3C75.0994 27.4067 74.906 26.7 74.5194 26.18C74.1327 25.66 73.606 25.4 72.9394 25.4C72.286 25.4 71.7594 25.66 71.3594 26.18C70.9727 26.6867 70.7794 27.3933 70.7794 28.3C70.7794 29.2067 70.9727 29.92 71.3594 30.44C71.7594 30.9467 72.286 31.2 72.9394 31.2Z" fill="white"/>
</svg>
