<svg width="120" height="50" viewBox="0 0 120 50" fill="none" xmlns="http://www.w3.org/2000/svg">
<rect width="120" height="50" rx="10" fill="#323232"/>
<path d="M44.8 24C46.2667 24.08 47.38 24.48 48.14 25.2C48.9133 25.9067 49.3 26.8333 49.3 27.98C49.3 28.78 49.1067 29.4933 48.72 30.12C48.3333 30.7333 47.76 31.22 47 31.58C46.24 31.94 45.3133 32.12 44.22 32.12C43.2067 32.12 42.2467 31.96 41.34 31.64C40.4467 31.3067 39.7267 30.8667 39.18 30.32L39.88 29.18C40.3467 29.66 40.9667 30.0533 41.74 30.36C42.5133 30.6533 43.34 30.8 44.22 30.8C45.3667 30.8 46.2533 30.5533 46.88 30.06C47.5067 29.5533 47.82 28.86 47.82 27.98C47.82 27.1133 47.5067 26.4333 46.88 25.94C46.2533 25.4467 45.3067 25.2 44.04 25.2H43.04V24.14L46.92 19.28H39.76V18H48.76V19.02L44.8 24ZM56.9091 32.12C55.8291 32.12 54.8624 31.8333 54.0091 31.26C53.1691 30.6867 52.5091 29.8667 52.0291 28.8C51.5624 27.72 51.3291 26.4533 51.3291 25C51.3291 23.5467 51.5624 22.2867 52.0291 21.22C52.5091 20.14 53.1691 19.3133 54.0091 18.74C54.8624 18.1667 55.8291 17.88 56.9091 17.88C57.9891 17.88 58.9491 18.1667 59.7891 18.74C60.6424 19.3133 61.3091 20.14 61.7891 21.22C62.2691 22.2867 62.5091 23.5467 62.5091 25C62.5091 26.4533 62.2691 27.72 61.7891 28.8C61.3091 29.8667 60.6424 30.6867 59.7891 31.26C58.9491 31.8333 57.9891 32.12 56.9091 32.12ZM56.9091 30.8C57.7224 30.8 58.4357 30.5733 59.0491 30.12C59.6757 29.6667 60.1624 29.0067 60.5091 28.14C60.8557 27.2733 61.0291 26.2267 61.0291 25C61.0291 23.7733 60.8557 22.7267 60.5091 21.86C60.1624 20.9933 59.6757 20.3333 59.0491 19.88C58.4357 19.4267 57.7224 19.2 56.9091 19.2C56.0957 19.2 55.3757 19.4267 54.7491 19.88C54.1357 20.3333 53.6557 20.9933 53.3091 21.86C52.9624 22.7267 52.7891 23.7733 52.7891 25C52.7891 26.2267 52.9624 27.2733 53.3091 28.14C53.6557 29.0067 54.1357 29.6667 54.7491 30.12C55.3757 30.5733 56.0957 30.8 56.9091 30.8ZM67.5313 25.5C66.5846 25.5 65.8179 25.1533 65.2313 24.46C64.6579 23.7533 64.3713 22.8333 64.3713 21.7C64.3713 20.5667 64.6579 19.6533 65.2313 18.96C65.8179 18.2533 66.5846 17.9 67.5313 17.9C68.4646 17.9 69.2246 18.2467 69.8113 18.94C70.3979 19.6333 70.6913 20.5533 70.6913 21.7C70.6913 22.8467 70.3979 23.7667 69.8113 24.46C69.2246 25.1533 68.4646 25.5 67.5313 25.5ZM76.0113 18H77.1913L67.6313 32H66.4513L76.0113 18ZM67.5313 24.6C68.1846 24.6 68.7046 24.3467 69.0913 23.84C69.4913 23.32 69.6913 22.6067 69.6913 21.7C69.6913 20.7933 69.4913 20.0867 69.0913 19.58C68.7046 19.06 68.1846 18.8 67.5313 18.8C66.8646 18.8 66.3379 19.06 65.9513 19.58C65.5646 20.1 65.3713 20.8067 65.3713 21.7C65.3713 22.5933 65.5646 23.3 65.9513 23.82C66.3379 24.34 66.8646 24.6 67.5313 24.6ZM76.1113 32.1C75.1779 32.1 74.4179 31.7533 73.8313 31.06C73.2446 30.3533 72.9513 29.4333 72.9513 28.3C72.9513 27.1667 73.2446 26.2533 73.8313 25.56C74.4179 24.8533 75.1779 24.5 76.1113 24.5C77.0579 24.5 77.8179 24.8533 78.3913 25.56C78.9779 26.2533 79.2713 27.1667 79.2713 28.3C79.2713 29.4333 78.9779 30.3533 78.3913 31.06C77.8179 31.7533 77.0579 32.1 76.1113 32.1ZM76.1113 31.2C76.7779 31.2 77.3046 30.94 77.6913 30.42C78.0779 29.9 78.2713 29.1933 78.2713 28.3C78.2713 27.4067 78.0779 26.7 77.6913 26.18C77.3046 25.66 76.7779 25.4 76.1113 25.4C75.4579 25.4 74.9313 25.66 74.5313 26.18C74.1446 26.6867 73.9513 27.3933 73.9513 28.3C73.9513 29.2067 74.1446 29.92 74.5313 30.44C74.9313 30.9467 75.4579 31.2 76.1113 31.2Z" fill="white"/>
</svg>
