<svg width="150" height="50" viewBox="0 0 150 50" fill="none" xmlns="http://www.w3.org/2000/svg">
<rect width="150" height="50" rx="8" fill="white"/>
<path d="M38.48 32.12C37.0933 32.12 35.84 31.8133 34.72 31.2C33.6133 30.5867 32.74 29.74 32.1 28.66C31.4733 27.5667 31.16 26.3467 31.16 25C31.16 23.6533 31.4733 22.44 32.1 21.36C32.74 20.2667 33.62 19.4133 34.74 18.8C35.86 18.1867 37.1133 17.88 38.5 17.88C39.54 17.88 40.5 18.0533 41.38 18.4C42.26 18.7467 43.0067 19.2533 43.62 19.92L42.68 20.86C41.5867 19.7533 40.2067 19.2 38.54 19.2C37.4333 19.2 36.4267 19.4533 35.52 19.96C34.6133 20.4667 33.9 21.16 33.38 22.04C32.8733 22.92 32.62 23.9067 32.62 25C32.62 26.0933 32.8733 27.08 33.38 27.96C33.9 28.84 34.6133 29.5333 35.52 30.04C36.4267 30.5467 37.4333 30.8 38.54 30.8C40.22 30.8 41.6 30.24 42.68 29.12L43.62 30.06C43.0067 30.7267 42.2533 31.24 41.36 31.6C40.48 31.9467 39.52 32.12 38.48 32.12ZM52.5234 32.12C51.1368 32.12 49.8768 31.8133 48.7434 31.2C47.6234 30.5733 46.7434 29.72 46.1034 28.64C45.4768 27.56 45.1634 26.3467 45.1634 25C45.1634 23.6533 45.4768 22.44 46.1034 21.36C46.7434 20.28 47.6234 19.4333 48.7434 18.82C49.8768 18.1933 51.1368 17.88 52.5234 17.88C53.9101 17.88 55.1568 18.1867 56.2634 18.8C57.3834 19.4133 58.2634 20.2667 58.9034 21.36C59.5434 22.44 59.8634 23.6533 59.8634 25C59.8634 26.3467 59.5434 27.5667 58.9034 28.66C58.2634 29.74 57.3834 30.5867 56.2634 31.2C55.1568 31.8133 53.9101 32.12 52.5234 32.12ZM52.5234 30.8C53.6301 30.8 54.6301 30.5533 55.5234 30.06C56.4168 29.5533 57.1168 28.86 57.6234 27.98C58.1301 27.0867 58.3834 26.0933 58.3834 25C58.3834 23.9067 58.1301 22.92 57.6234 22.04C57.1168 21.1467 56.4168 20.4533 55.5234 19.96C54.6301 19.4533 53.6301 19.2 52.5234 19.2C51.4168 19.2 50.4101 19.4533 49.5034 19.96C48.6101 20.4533 47.9034 21.1467 47.3834 22.04C46.8768 22.92 46.6234 23.9067 46.6234 25C46.6234 26.0933 46.8768 27.0867 47.3834 27.98C47.9034 28.86 48.6101 29.5533 49.5034 30.06C50.4101 30.5533 51.4168 30.8 52.5234 30.8ZM71.6952 24.78C72.6685 24.98 73.4085 25.3733 73.9152 25.96C74.4218 26.5333 74.6752 27.2867 74.6752 28.22C74.6752 29.4333 74.2418 30.3667 73.3752 31.02C72.5218 31.6733 71.2618 32 69.5952 32H63.3952V18H69.2152C70.7085 18 71.8752 18.3067 72.7152 18.92C73.5552 19.5333 73.9752 20.42 73.9752 21.58C73.9752 22.3667 73.7752 23.0333 73.3752 23.58C72.9752 24.1133 72.4152 24.5133 71.6952 24.78ZM64.8552 24.34H69.1352C70.2152 24.34 71.0418 24.12 71.6152 23.68C72.2018 23.24 72.4952 22.6 72.4952 21.76C72.4952 20.92 72.2018 20.28 71.6152 19.84C71.0418 19.4 70.2152 19.18 69.1352 19.18H64.8552V24.34ZM69.5952 30.82C72.0085 30.82 73.2152 29.92 73.2152 28.12C73.2152 26.36 72.0085 25.48 69.5952 25.48H64.8552V30.82H69.5952ZM88.2756 30.72V32H78.3756V18H87.9756V19.28H79.8556V24.26H87.0956V25.52H79.8556V30.72H88.2756ZM100.719 19.28H95.7992V32H94.3392V19.28H89.4192V18H100.719V19.28ZM109.177 23C110.83 23 112.09 23.3733 112.957 24.12C113.837 24.8667 114.277 25.96 114.277 27.4C114.277 28.9067 113.81 30.0533 112.877 30.84C111.957 31.6133 110.624 32 108.877 32H103.317V18H104.777V23H109.177ZM108.837 30.82C110.13 30.82 111.11 30.5333 111.777 29.96C112.457 29.3867 112.797 28.54 112.797 27.42C112.797 25.2733 111.477 24.2 108.837 24.2H104.777V30.82H108.837ZM116.697 18H118.157V32H116.697V18Z" fill="#323232"/>
</svg>
